<svg id="Layer_1" data-name="Layer 1" xmlns="http://www.w3.org/2000/svg" viewBox="0 0 155.55 47.27"><defs><style>.cls-1{fill:#69e267;}.cls-2{fill:none;stroke:#b11414;stroke-miterlimit:10;}</style></defs><path class="cls-1" d="M9.06,0V30.45h-9V0h9ZM26.43,0l-8,13.78h0l8,16.61H16.2L9.33,13.65h0L17.14,0h9.29Z" transform="translate(0 -0.01)"/><path class="cls-1" d="M35.68,23.79v5.89a1.2,1.2,0,0,1-1.09,1.19H33.8a11.42,11.42,0,0,1-8.37-3.31,11.13,11.13,0,0,1-3.35-8.28A11.52,11.52,0,0,1,33.57,7.73h.12a11.47,11.47,0,0,1,8.51,3.16c2.07,2.11,3.1,5,3.11,8.63v9.67a1.22,1.22,0,0,1-1.22,1.22H38.2A1.22,1.22,0,0,1,37,29.2h0V20.13a4.33,4.33,0,0,0-.86-2.82,2.8,2.8,0,0,0-2.31-1,3.28,3.28,0,0,0-3.24,3.24,3.15,3.15,0,0,0,.87,2.28,3,3,0,0,0,2.21.89,2.91,2.91,0,0,0,.59,0,1.22,1.22,0,0,1,1.43.94A1.1,1.1,0,0,1,35.68,23.79Z" transform="translate(0 -0.01)"/><path class="cls-1" d="M72.89.4a.38.38,0,0,1,.38.38.5.5,0,0,1,0,.12L66.38,22.09a12.56,12.56,0,0,1-5.07,7.1,11,11,0,0,1-4.62,1.64,11.75,11.75,0,0,1-5-.43,11.51,11.51,0,0,1-7-5.72,11,11,0,0,1-.78-8.86,11.2,11.2,0,0,1,5.68-6.75,10.89,10.89,0,0,1,8.7-.86L60,8.73a.41.41,0,0,1,.27.51h0l-2.45,7.8a.41.41,0,0,1-.51.27.37.37,0,0,1-.17-.1,2.95,2.95,0,0,0-3.67-.59,3.13,3.13,0,0,0-1.57,1.9A3,3,0,0,0,52.2,21a3.22,3.22,0,0,0,1.91,1.58c2,.64,3.51-.45,4.41-3.27l3.15-9.89a.41.41,0,0,1,.38-.29c1.07-.06,3.67,0,4.36-.43s2.29-2,1.62-1.61a18.78,18.78,0,0,1-5.18.7.42.42,0,0,1-.37-.57L65.2.42h0Z" transform="translate(0 -0.01)"/><path class="cls-1" d="M90.44,20.69H77.78a6.18,6.18,0,0,1-.29-1.76,6.41,6.41,0,0,1,.14-1.31,1.09,1.09,0,0,1,1.06-.88h3.45a2.63,2.63,0,0,0-2.77-2.48h0a3,3,0,0,0-2.54,1.33,5.53,5.53,0,0,0-1,3.41,5.86,5.86,0,0,0,1,3.5,2.88,2.88,0,0,0,2.49,1.34,2.82,2.82,0,0,0,1.7-.61,1,1,0,0,1,1.36.15l3.36,4a1.08,1.08,0,0,1-.15,1.52L85.4,29a11.92,11.92,0,0,1-14.7-1.39,11.14,11.14,0,0,1-3.37-8.24,11.2,11.2,0,0,1,3.41-8.26A11.44,11.44,0,0,1,79.1,7.72,11.25,11.25,0,0,1,90.53,18.79v.34Q90.53,19.63,90.44,20.69Z" transform="translate(0 -0.01)"/><path class="cls-1" d="M109.3,30.47H101V17.9Q101,16,99.4,16T97.84,17.9V30.45H89.49V18.06a10.11,10.11,0,0,1,2.88-7.33,10,10,0,0,1,14.14-.13c.2.2.39.4.57.61,1.51,1.8,2.26,4.3,2.26,7.52V30.45Z" transform="translate(0 -0.01)"/><path class="cls-1" d="M124.2,20.19l8.24-.31h0a11.79,11.79,0,0,1-3.59,7.91,11,11,0,0,1-7.88,3.1,11.26,11.26,0,0,1-8.3-3.42,11.41,11.41,0,0,1-3.38-8.37,10.75,10.75,0,0,1,2.44-7,12,12,0,0,1,10.1-4.4A11.53,11.53,0,0,1,132.24,17h0l-8.43.31h0A3.35,3.35,0,0,0,121,15.89a3.11,3.11,0,0,0-2.34.94,3.2,3.2,0,0,0-.92,2.36,3.33,3.33,0,0,0,1,2.44,3.25,3.25,0,0,0,2.42,1q2.11,0,3-2.46Z" transform="translate(0 -0.01)"/><path class="cls-1" d="M155.46,20.69H142.8a5.85,5.85,0,0,1-.29-1.76,6.26,6.26,0,0,1,.18-1.49,1,1,0,0,1,.95-.7h3.56a2.63,2.63,0,0,0-2.77-2.48h0a3.06,3.06,0,0,0-2.55,1.33,5.68,5.68,0,0,0-1,3.41,6,6,0,0,0,1,3.5,2.87,2.87,0,0,0,4.2.73,1,1,0,0,1,1.35.15l3.42,4.11a1,1,0,0,1-.13,1.41l-.11.08a11.58,11.58,0,0,1-6.46,1.94,11.38,11.38,0,0,1-7.93-2.85c-.18-.15-.34-.31-.51-.48a11.1,11.1,0,0,1-3.37-8.24,11.19,11.19,0,0,1,3.4-8.26,11.44,11.44,0,0,1,8.36-3.37,11.27,11.27,0,0,1,11.44,11.1v.31A12,12,0,0,1,155.46,20.69Z" transform="translate(0 -0.01)"/><polyline class="cls-2" points="155.55 31.17 142.26 31.17 140.4 38.16 138.05 24.56 135.31 43.26 132.47 16.26 129.52 38.7 126.49 31.1 0 31.07"/></svg>